<svg width="12" height="12" viewBox="0 0 22 22" fill="none" xmlns="http://www.w3.org/2000/svg">
<path d="M19.0654 0.779565C19.6605 0.184481 20.6253 0.184481 21.2204 0.779565C21.8155 1.37465 21.8155 2.33947 21.2204 2.93456L13.155 10.9999L21.2204 19.0653C21.8155 19.6604 21.8155 20.6252 21.2204 21.2203C20.6253 21.8154 19.6605 21.8154 19.0654 21.2203L10.9987 13.1546L2.93468 21.2203C2.3396 21.8154 1.37477 21.8154 0.779687 21.2203C0.184603 20.6252 0.184603 19.6604 0.779687 19.0653L8.84505 10.9999L0.779687 2.93456C0.184603 2.33947 0.184603 1.37465 0.779687 0.779565C1.37477 0.184481 2.3396 0.184481 2.93468 0.779565L11 8.84392L19.0654 0.779565Z" fill="#0F0F1A"/>
</svg>
